<?xml version="1.0" standalone="no"?>
<!DOCTYPE svg PUBLIC "-//W3C//DTD SVG 20010904//EN"
 "http://www.w3.org/TR/2001/REC-SVG-20010904/DTD/svg10.dtd">
<svg version="1.0" xmlns="http://www.w3.org/2000/svg"
 width="704.000000pt" height="704.000000pt" viewBox="0 0 704.000000 704.000000"
 preserveAspectRatio="xMidYMid meet">
<metadata>
Created by potrace 1.11, written by Peter Selinger 2001-2013
</metadata>
<g transform="translate(0.000000,704.000000) scale(0.100000,-0.100000)"
fill="#000000" stroke="none">
<path d="M3040 6093 c0 -5 -6 -10 -12 -10 -7 0 -29 -7 -48 -16 -19 -9 -87 -37
-150 -63 -63 -25 -126 -51 -140 -57 -14 -6 -27 -11 -30 -12 -3 0 -15 -6 -26
-13 -12 -6 -24 -8 -28 -5 -3 3 -6 1 -6 -5 0 -7 -8 -12 -18 -12 -10 0 -22 -3
-26 -7 -4 -5 -11 -8 -14 -8 -4 -1 -29 -11 -56 -23 -27 -12 -53 -22 -57 -22 -5
0 -17 -5 -27 -10 -54 -31 -190 -80 -235 -84 -68 -7 -175 -15 -257 -21 -180
-12 -160 -4 -266 -112 -52 -54 -148 -152 -214 -218 l-118 -120 -133 -260 c-73
-143 -148 -281 -166 -306 -18 -26 -33 -51 -33 -57 0 -6 -4 -12 -8 -14 -5 -1
-46 -59 -92 -128 -46 -69 -86 -127 -89 -130 -3 -3 -12 -17 -20 -32 -8 -15 -21
-36 -30 -45 -9 -10 -22 -30 -30 -45 -8 -16 -18 -28 -23 -28 -4 0 -8 -6 -8 -13
0 -7 -8 -22 -17 -33 -19 -20 -155 -221 -162 -239 -2 -5 -10 -16 -18 -23 -7 -7
-13 -20 -13 -28 0 -8 -4 -14 -9 -14 -5 0 -11 -10 -14 -22 -3 -13 -82 -251
-176 -529 -94 -278 -171 -512 -170 -520 0 -8 32 -30 72 -49 40 -19 101 -51
137 -71 36 -20 106 -57 155 -84 50 -26 131 -69 180 -96 50 -26 164 -85 255
-131 143 -72 167 -88 183 -118 9 -19 46 -96 81 -170 35 -74 89 -188 120 -253
31 -65 56 -121 56 -125 0 -4 7 -15 14 -25 14 -18 30 -23 93 -32 18 -3 52 -9
76 -15 24 -5 61 -12 83 -15 51 -6 95 -14 117 -21 11 -4 17 0 18 13 1 10 3 32
4 48 1 17 5 66 9 110 3 44 8 114 11 155 11 141 15 195 21 300 6 95 9 135 13
165 1 6 17 -26 37 -70 19 -44 42 -95 50 -113 9 -19 38 -83 65 -144 27 -61 55
-116 62 -122 7 -6 33 -36 58 -66 24 -30 48 -60 54 -66 5 -6 21 -26 35 -44 14
-18 32 -40 40 -49 80 -82 100 -120 171 -322 39 -112 73 -212 76 -221 3 -10 22
-21 47 -27 22 -5 59 -15 81 -21 88 -24 111 -31 128 -35 10 -2 26 -7 36 -10 9
-3 39 6 67 20 54 28 69 30 87 14 7 -6 61 -42 122 -81 l110 -71 60 12 c33 7 68
15 78 17 10 2 26 5 35 8 9 3 29 7 45 10 15 3 35 7 45 10 9 3 28 7 42 10 14 3
41 9 60 14 40 10 43 10 141 -13 41 -9 85 -19 98 -21 13 -3 51 -12 85 -20 88
-22 146 -28 146 -15 0 6 4 11 9 11 6 0 29 13 53 28 24 16 75 49 113 75 57 37
73 43 85 33 8 -6 32 -20 53 -29 38 -17 40 -17 150 14 62 17 122 35 135 40 13
5 32 9 42 9 11 0 19 3 18 8 -3 7 62 198 87 257 7 17 23 62 35 102 13 39 33 83
44 96 28 34 55 66 144 176 43 52 90 109 105 125 23 25 80 126 83 146 0 3 19
45 42 94 23 49 42 91 42 93 0 2 9 24 20 49 11 24 25 56 31 70 5 15 11 25 13
23 3 -3 13 -109 21 -244 2 -22 6 -87 10 -145 11 -159 13 -197 19 -298 3 -52 8
-98 11 -102 3 -4 24 -4 46 1 23 6 44 8 46 5 3 -3 15 -1 27 4 21 8 46 13 134
26 20 3 46 8 57 11 21 7 30 9 56 11 8 1 24 21 34 45 19 42 72 157 160 342 25
55 61 131 78 168 l32 68 195 99 c186 95 263 135 465 245 133 72 159 86 173 97
6 6 12 8 12 4 0 -3 18 5 40 19 22 14 43 25 47 25 5 0 16 7 26 14 17 13 16 22
-33 168 -28 84 -55 162 -59 173 -5 11 -41 119 -81 240 -39 121 -76 229 -80
240 -5 11 -26 74 -48 140 -35 105 -51 137 -133 259 -52 76 -98 146 -104 155
-5 9 -59 89 -120 179 -60 89 -117 173 -125 187 -8 13 -39 58 -67 99 -29 42
-53 80 -53 85 0 5 -4 11 -8 13 -14 6 -48 62 -71 118 -13 30 -26 57 -30 60 -3
3 -44 82 -90 175 -47 94 -88 172 -93 173 -4 2 -8 8 -8 12 0 5 -96 106 -213
226 -200 202 -217 217 -253 220 -21 1 -75 5 -119 8 -73 5 -135 10 -270 22 -43
4 -111 29 -305 111 -47 20 -62 26 -150 63 -104 43 -109 45 -162 69 -26 12 -50
21 -53 21 -5 0 -33 12 -144 61 -67 29 -101 30 -296 4 -27 -3 -61 -8 -75 -11
-108 -18 -199 -21 -275 -10 -22 3 -62 8 -90 12 -27 3 -63 8 -80 10 -108 18
-225 26 -225 17z"/>
</g>
</svg>
